<?xml version="1.0" standalone="no"?>
<!DOCTYPE svg PUBLIC "-//W3C//DTD SVG 20010904//EN"
 "http://www.w3.org/TR/2001/REC-SVG-20010904/DTD/svg10.dtd">
<svg version="1.0" xmlns="http://www.w3.org/2000/svg"
 width="400.000000pt" height="400.000000pt" viewBox="0 0 400.000000 400.000000"
 preserveAspectRatio="xMidYMid meet">
<metadata>
Created by potrace 1.11, written by Peter Selinger 2001-2013
</metadata>
<g transform="translate(0.000000,400.000000) scale(0.100000,-0.100000)"
fill="#000000" stroke="none">
<path d="M1770 3965 c-744 -102 -1403 -632 -1644 -1322 -321 -924 98 -1960
974 -2407 972 -496 2168 -108 2664 864 496 972 108 2168 -864 2664 -346 177
-764 251 -1130 201z m460 -1420 l0 -265 50 39 c71 57 135 76 250 76 88 0 101
-3 162 -33 161 -79 248 -258 234 -482 -9 -166 -53 -268 -156 -363 -83 -78
-146 -101 -275 -101 -87 -1 -107 2 -155 25 -30 14 -72 41 -92 61 -21 19 -40
33 -43 30 -3 -3 -5 -27 -5 -54 l0 -48 -91 0 -92 0 7 77 c3 42 6 352 6 690 l0
613 100 0 100 0 0 -265z m-1290 146 l0 -68 -56 -6 c-125 -13 -142 -66 -104
-317 22 -137 2 -231 -57 -286 l-26 -24 36 -39 c59 -65 70 -143 42 -301 -27
-152 -15 -236 36 -268 12 -8 46 -16 75 -19 l54 -6 0 -70 0 -70 -81 6 c-205 14
-295 137 -260 360 28 185 31 220 21 259 -13 46 -44 69 -105 76 l-45 5 0 62 0
63 38 6 c59 11 88 25 103 53 17 32 16 117 -2 209 -7 38 -14 114 -14 169 0 83
4 107 22 140 47 89 132 132 266 134 l57 1 0 -69z m2288 32 c69 -34 107 -85
124 -165 10 -47 9 -83 -6 -212 -10 -86 -16 -175 -13 -198 7 -54 39 -83 101
-92 l46 -7 0 -63 0 -63 -47 -6 c-37 -4 -54 -12 -75 -36 -34 -38 -35 -63 -11
-249 14 -109 15 -145 6 -199 -23 -132 -108 -200 -262 -210 l-81 -6 0 72 0 71
35 0 c44 0 94 20 119 49 27 30 31 99 12 245 -23 177 -7 262 60 315 l27 21 -27
21 c-65 51 -82 136 -61 304 19 155 19 202 -3 245 -19 39 -61 58 -124 59 l-38
1 0 71 0 72 81 -6 c61 -4 94 -12 137 -34z m-1653 -338 c104 -27 174 -86 227
-189 46 -91 72 -249 52 -323 l-6 -23 -315 0 -315 0 7 -37 c40 -219 232 -287
530 -188 19 5 22 0 33 -52 7 -32 15 -67 18 -79 5 -18 -3 -23 -61 -42 -180 -60
-371 -53 -498 16 -220 119 -290 438 -155 705 88 175 288 262 483 212z"/>
<path d="M2391 2213 c-51 -18 -109 -72 -136 -128 -15 -32 -20 -67 -23 -167 -5
-155 8 -205 71 -266 92 -90 225 -95 321 -11 130 115 135 398 8 522 -65 63
-152 81 -241 50z"/>
<path d="M1364 2222 c-50 -24 -98 -81 -119 -141 -26 -76 -39 -71 201 -71 l217
0 -7 43 c-11 67 -44 126 -88 155 -54 35 -145 41 -204 14z"/>
</g>
</svg>
